<svg xmlns="http://www.w3.org/2000/svg" xmlns:xlink="http://www.w3.org/1999/xlink" width="512px" height="512px" style="shape-rendering:geometricPrecision; text-rendering:geometricPrecision; image-rendering:optimizeQuality; fill-rule:evenodd; clip-rule:evenodd"><g><path style="opacity:0.922" fill="#1F628E" d="M 223.5,8.5 C 229.244,8.35052 232.577,11.0172 233.5,16.5C 227.832,26.5022 222.666,36.8355 218,47.5C 215.293,57.5791 216.293,67.2458 221,76.5C 226.947,85.4472 233.28,94.1138 240,102.5C 252.088,121.554 253.755,141.554 245,162.5C 241.3,171.409 236.467,179.576 230.5,187C 223.425,190.129 219.091,187.963 217.5,180.5C 221.371,172.427 225.538,164.427 230,156.5C 237.06,140.379 235.726,125.046 226,110.5C 217.679,100.529 210.346,89.8621 204,78.5C 198.846,63.2401 199.513,48.2401 206,33.5C 210.238,23.8095 216.071,15.4762 223.5,8.5 Z"></path></g><g><path style="opacity:0.92" fill="#1F628E" d="M 141.5,41.5 C 152.12,40.0713 155.62,44.4046 152,54.5C 144.779,60.9349 141.446,68.9349 142,78.5C 143.08,80.9962 144.414,83.3295 146,85.5C 171.638,107.129 173.138,130.295 150.5,155C 143.651,158 139.318,155.834 137.5,148.5C 141.101,141.724 144.934,135.058 149,128.5C 151.514,121.609 150.514,115.275 146,109.5C 139.958,103.127 134.292,96.4604 129,89.5C 123.655,77.0076 124.655,65.0076 132,53.5C 135.381,49.625 138.547,45.625 141.5,41.5 Z"></path></g><g><path style="opacity:0.92" fill="#1F628E" d="M 300.5,41.5 C 310.469,39.9642 314.302,43.9642 312,53.5C 307.891,57.6098 304.557,62.2765 302,67.5C 299.193,74.7116 300.526,81.0449 306,86.5C 329.958,107.048 331.792,129.381 311.5,153.5C 306.748,157.63 302.248,157.296 298,152.5C 297.333,149.833 297.333,147.167 298,144.5C 301.726,139.772 305.059,134.772 308,129.5C 310.676,122.243 309.676,115.576 305,109.5C 297.131,102.303 290.798,93.9694 286,84.5C 283.632,75.9185 284.298,67.5852 288,59.5C 291.437,52.9476 295.604,46.9476 300.5,41.5 Z"></path></g><g><path style="opacity:0.933" fill="#1F628E" d="M 58.5,215.5 C 136.501,215.333 214.501,215.5 292.5,216C 296.753,219.42 297.587,223.587 295,228.5C 294.097,229.701 292.931,230.535 291.5,231C 214.085,231.006 136.752,231.672 59.5,233C 58.8742,233.75 58.3742,234.584 58,235.5C 57.0755,261.862 57.4089,288.195 59,314.5C 60.5287,322.948 62.5287,331.281 65,339.5C 69.7882,351.569 74.9549,363.402 80.5,375C 80.4137,380.253 77.747,383.087 72.5,383.5C 69.3412,382.845 66.8412,381.178 65,378.5C 52.1192,356.524 44.4526,332.858 42,307.5C 41.3333,282.167 41.3333,256.833 42,231.5C 44.752,223.247 50.252,217.913 58.5,215.5 Z"></path></g><g><path style="opacity:0.933" fill="#1F628E" d="M 511.5,286.5 C 511.5,303.5 511.5,320.5 511.5,337.5C 506.847,363.638 493.513,384.138 471.5,399C 440.53,416.793 409.53,416.96 378.5,399.5C 361.462,419.377 341.129,434.877 317.5,446C 363.917,446.01 410.25,446.676 456.5,448C 460.313,472.03 450.98,489.03 428.5,499C 426.212,499.822 423.878,500.489 421.5,501C 404.869,502.557 388.202,502.891 371.5,502C 364.473,497.862 363.806,492.862 369.5,487C 384.167,486.667 398.833,486.333 413.5,486C 427.177,483.816 436.51,476.316 441.5,463.5C 299.833,462.167 158.167,462.167 16.5,463.5C 21.386,476.453 30.7193,483.953 44.5,486C 144.5,486.333 244.5,486.667 344.5,487C 346.333,487.5 347.5,488.667 348,490.5C 349.992,496.337 348.158,500.171 342.5,502C 292.667,502.167 242.833,502.333 193,502.5C 140.807,502.651 88.6399,502.151 36.5,501C 16.9855,495.985 4.65222,483.818 -0.5,464.5C -0.5,459.833 -0.5,455.167 -0.5,450.5C 0.316435,448.856 1.64977,447.69 3.5,447C 48.8333,446.667 94.1667,446.333 139.5,446C 122.001,437.17 106.168,426.003 92,412.5C 89.3348,405.83 91.5014,401.497 98.5,399.5C 100.197,399.899 101.863,400.399 103.5,401C 131.841,428.497 165.841,443.497 205.5,446C 229.28,447.324 252.947,446.324 276.5,443C 338.203,427.629 378.037,389.463 396,328.5C 397.873,320.928 399.206,313.262 400,305.5C 400.667,282.167 400.667,258.833 400,235.5C 399.5,233.667 398.333,232.5 396.5,232C 370.5,231.667 344.5,231.333 318.5,231C 312.253,226.486 311.92,221.486 317.5,216C 344.833,215.333 372.167,215.333 399.5,216C 409.056,218.592 414.89,224.759 417,234.5C 452.37,222.917 480.703,232.251 502,262.5C 506.279,270.191 509.446,278.191 511.5,286.5 Z M 434.5,245.5 C 461.177,243.724 480.344,254.724 492,278.5C 494.603,284.911 495.936,291.578 496,298.5C 496.691,311.191 496.358,323.858 495,336.5C 488.271,368.229 469.105,387.729 437.5,395C 419.685,398.218 403.018,395.218 387.5,386C 390.554,381.382 393.72,376.882 397,372.5C 425.811,385.647 450.144,379.981 470,355.5C 473.768,349.294 476.434,342.628 478,335.5C 480.132,319.628 479.965,303.794 477.5,288C 470.035,268.926 456.035,260.593 435.5,263C 429.178,264.942 422.844,266.775 416.5,268.5C 416.334,262.824 416.501,257.157 417,251.5C 422.829,249.169 428.663,247.169 434.5,245.5 Z M 437.5,278.5 C 449.215,277.104 457.382,281.771 462,292.5C 463.955,306.157 463.955,319.824 462,333.5C 452.544,359.103 434.711,367.936 408.5,360C 406.445,359.313 404.779,358.146 403.5,356.5C 412.811,334.112 417.311,310.778 417,286.5C 423.963,283.927 430.796,281.26 437.5,278.5 Z"></path></g></svg>