<svg xmlns="http://www.w3.org/2000/svg" xmlns:xlink="http://www.w3.org/1999/xlink" width="512px" height="512px" style="shape-rendering:geometricPrecision; text-rendering:geometricPrecision; image-rendering:optimizeQuality; fill-rule:evenodd; clip-rule:evenodd"><g><path style="opacity:0.974" fill="#1F628E" d="M 511.5,146.5 C 511.5,264.5 511.5,382.5 511.5,500.5C 509.525,503.961 506.525,506.127 502.5,507C 337.833,507.667 173.167,507.667 8.5,507C 4.47542,506.127 1.47542,503.961 -0.5,500.5C -0.5,382.5 -0.5,264.5 -0.5,146.5C 0.93142,144.563 2.59809,142.73 4.5,141C 85.6611,96.2536 166.661,51.2536 247.5,6C 253.67,2.58018 259.67,2.91351 265.5,7C 345.672,51.9203 426.005,96.5869 506.5,141C 508.402,142.73 510.069,144.563 511.5,146.5 Z M 253.5,30.5 C 256.425,30.4598 259.091,31.2932 261.5,33C 336.5,74.8333 411.5,116.667 486.5,158.5C 487.5,266.831 487.833,375.165 487.5,483.5C 472.833,483.5 458.167,483.5 443.5,483.5C 443.995,393.085 443.495,302.752 442,212.5C 440.5,211 439,209.5 437.5,208C 316.5,207.333 195.5,207.333 74.5,208C 71.6667,209.5 69.5,211.667 68,214.5C 67.5,304.166 67.3333,393.833 67.5,483.5C 52.8333,483.5 38.1667,483.5 23.5,483.5C 23.1667,375.165 23.5,266.831 24.5,158.5C 101.057,116.059 177.39,73.3925 253.5,30.5 Z M 91.5,231.5 C 200.833,231.5 310.167,231.5 419.5,231.5C 419.5,246.167 419.5,260.833 419.5,275.5C 310.167,275.5 200.833,275.5 91.5,275.5C 91.5,260.833 91.5,246.167 91.5,231.5 Z M 91.5,299.5 C 200.833,299.5 310.167,299.5 419.5,299.5C 419.5,314.167 419.5,328.833 419.5,343.5C 310.167,343.5 200.833,343.5 91.5,343.5C 91.5,328.833 91.5,314.167 91.5,299.5 Z M 91.5,367.5 C 200.833,367.5 310.167,367.5 419.5,367.5C 419.5,382.167 419.5,396.833 419.5,411.5C 310.167,411.5 200.833,411.5 91.5,411.5C 91.5,396.833 91.5,382.167 91.5,367.5 Z M 91.5,435.5 C 200.833,435.5 310.167,435.5 419.5,435.5C 419.5,451.5 419.5,467.5 419.5,483.5C 310.167,483.5 200.833,483.5 91.5,483.5C 91.5,467.5 91.5,451.5 91.5,435.5 Z"></path></g></svg>